<svg width="24" height="24" viewBox="0 0 24 24" fill="none" xmlns="http://www.w3.org/2000/svg">
<rect width="24" height="24" fill="white"/>
<circle cx="11.9998" cy="12.0001" r="10" transform="rotate(60 11.9998 12.0001)" stroke="#092C4C" stroke-width="2"/>
<circle cx="12.0003" cy="12" r="3" fill="#092C4C"/>
<path d="M11.9999 7C13.9757 7 15.6731 7.89125 17.034 9.02798C18.3499 10.127 19.287 11.4038 19.7686 12.141C19.1549 12.8293 17.9902 14.0446 16.5733 15.0936C15.0856 16.1949 13.4696 17 11.9999 17C10.5303 17 8.91425 16.1949 7.42659 15.0936C6.00967 14.0446 4.845 12.8293 4.23129 12.141C4.71284 11.4038 5.65001 10.127 6.96584 9.02798C8.32681 7.89125 10.0241 7 11.9999 7Z" stroke="#092C4C" stroke-width="2"/>
</svg>
