<svg width="28" height="24" viewBox="0 0 28 24" fill="none" xmlns="http://www.w3.org/2000/svg">
<path d="M24.5 18.3V12.4252C24.5 11.1729 24.5 10.5468 24.3274 9.97839C24.1746 9.47524 23.9241 9.00714 23.5902 8.6009C23.213 8.14202 22.692 7.7947 21.6501 7.10005L17.5501 4.36672C16.2671 3.51137 15.6255 3.08369 14.9322 2.91753C14.3194 2.77069 13.6806 2.77069 13.0678 2.91753C12.3745 3.08369 11.7329 3.51137 10.4499 4.36672L6.34992 7.10005C5.30796 7.7947 4.78697 8.14202 4.40982 8.6009C4.07592 9.00714 3.82541 9.47524 3.6726 9.97839C3.5 10.5468 3.5 11.1729 3.5 12.4252V18.3C3.5 19.4201 3.5 19.9802 3.71799 20.408C3.90973 20.7843 4.21569 21.0903 4.59202 21.282C5.01984 21.5 5.57989 21.5 6.7 21.5H7.79167C7.90773 21.5 7.96576 21.5 8.0148 21.4976C9.04221 21.4471 9.86378 20.6255 9.91426 19.5981C9.91667 19.5491 9.91667 19.4911 9.91667 19.375V17.0833C9.91667 14.8282 11.7448 13 14 13C16.2552 13 18.0833 14.8282 18.0833 17.0833V19.375C18.0833 19.4911 18.0833 19.5491 18.0857 19.5981C18.1362 20.6255 18.9578 21.4471 19.9852 21.4976C20.0342 21.5 20.0923 21.5 20.2083 21.5H21.3C22.4201 21.5 22.9802 21.5 23.408 21.282C23.7843 21.0903 24.0903 20.7843 24.282 20.408C24.5 19.9802 24.5 19.4201 24.5 18.3Z" stroke="#828282" stroke-width="1.8"/>
</svg>
